<?xml version="1.0" encoding="UTF-8"?>
<svg xmlns="http://www.w3.org/2000/svg" xmlns:xlink="http://www.w3.org/1999/xlink" width="810pt" height="809.999993pt" viewBox="0 0 810 809.999993" version="1.2">
<defs>
<clipPath id="clip1">
  <path d="M 24.023438 23.746094 L 786.773438 23.746094 L 786.773438 786.496094 L 24.023438 786.496094 Z M 24.023438 23.746094 "/>
</clipPath>
<clipPath id="clip2">
  <path d="M 222.496094 98.042969 L 622.246094 98.042969 L 622.246094 788.632812 L 222.496094 788.632812 Z M 222.496094 98.042969 "/>
</clipPath>
<clipPath id="clip3">
  <path d="M 222.496094 98.042969 L 622.246094 98.042969 L 622.246094 788.632812 L 222.496094 788.632812 Z M 222.496094 98.042969 "/>
</clipPath>
</defs>
<g id="surface1">
<path style=" stroke:none;fill-rule:nonzero;fill:rgb(5.879211%,5.488586%,4.708862%);fill-opacity:1;" d="M 404.675781 809.351562 C 296.632812 809.351562 194.898438 767.300781 118.554688 690.796875 C 42.050781 614.453125 0 512.71875 0 404.675781 C 0 296.632812 42.050781 194.898438 118.554688 118.554688 C 194.898438 42.050781 296.632812 0 404.675781 0 C 512.71875 0 614.453125 42.050781 690.796875 118.554688 C 767.300781 195.058594 809.351562 296.632812 809.351562 404.675781 C 809.351562 512.71875 767.300781 614.453125 690.796875 690.796875 C 614.453125 767.300781 512.71875 809.351562 404.675781 809.351562 Z M 404.675781 24.261719 C 303.101562 24.261719 207.515625 63.886719 135.699219 135.699219 C 63.886719 207.515625 24.261719 303.101562 24.261719 404.675781 C 24.261719 506.25 63.886719 601.839844 135.699219 673.652344 C 207.515625 745.464844 303.101562 785.089844 404.675781 785.089844 C 506.25 785.089844 601.839844 745.464844 673.652344 673.652344 C 745.464844 601.839844 785.089844 506.25 785.089844 404.675781 C 785.089844 303.101562 745.464844 207.515625 673.652344 135.699219 C 601.839844 63.886719 506.25 24.261719 404.675781 24.261719 Z M 404.675781 24.261719 "/>
<g clip-path="url(#clip1)" clip-rule="nonzero">
<path style=" stroke:none;fill-rule:nonzero;fill:rgb(100%,100%,97.648621%);fill-opacity:1;" d="M 405.398438 23.746094 C 195.109375 23.746094 24.023438 194.832031 24.023438 405.121094 C 24.023438 615.414062 195.109375 786.496094 405.398438 786.496094 C 615.691406 786.496094 786.773438 615.414062 786.773438 405.121094 C 786.773438 194.832031 615.691406 23.746094 405.398438 23.746094 Z M 405.398438 23.746094 "/>
</g>
<g clip-path="url(#clip2)" clip-rule="nonzero">
<path style=" stroke:none;fill-rule:nonzero;fill:rgb(5.879211%,5.488586%,4.708862%);fill-opacity:1;" d="M 622.230469 729.808594 C 611.78125 673.074219 601.457031 617.621094 590.136719 562.914062 C 586.050781 543.117188 580.847656 522.820312 566.863281 509.546875 C 565.707031 508.453125 564.503906 507.40625 563.222656 506.410156 C 563.191406 506.394531 563.191406 506.367188 563.152344 506.355469 C 551.171875 497.070312 536.234375 494.445312 521.753906 491.90625 C 510.917969 489.996094 499.695312 488.023438 490.089844 483.214844 C 489.496094 482.910156 488.902344 482.605469 488.308594 482.289062 C 486.363281 481.210938 484.402344 479.996094 482.46875 478.628906 C 478.453125 475.808594 474.4375 472.316406 470.171875 468.003906 C 468.761719 447.78125 467.839844 427.25 467.4375 406.941406 C 467.285156 398.613281 467.285156 389.148438 469.289062 380.5 L 469.605469 380.5 C 478.550781 380.445312 487.203125 374.644531 490.628906 366.410156 C 490.933594 365.679688 491.222656 364.890625 491.539062 364.101562 C 492.824219 360.703125 493.859375 358.273438 495.390625 358.09375 C 496.273438 357.984375 497.53125 358.675781 498.867188 359.390625 C 500.042969 360.027344 501.351562 360.730469 502.859375 361.175781 C 510.351562 363.371094 517.367188 357.664062 520.179688 351.1875 C 521.808594 347.402344 522.375 343.476562 522.941406 339.679688 C 523.21875 337.71875 523.507812 335.867188 523.910156 334.054688 C 524.570312 331.113281 525.539062 329.207031 526.863281 328.226562 C 529.347656 326.375 533.488281 327.519531 536.277344 329.054688 C 537.683594 329.84375 539.035156 330.78125 540.472656 331.777344 C 542.984375 333.488281 545.550781 335.273438 548.628906 336.417969 C 556.25 339.265625 565.679688 337.34375 572.636719 331.542969 C 578.28125 326.832031 582.449219 319.714844 584.710938 311 C 589.476562 292.570312 584.546875 272.332031 571.847656 258.15625 C 571.253906 257.492188 570.648438 256.84375 570.054688 256.210938 C 568.257812 254.316406 566.601562 252.535156 565.441406 250.53125 C 562.242188 245.0625 562.902344 238.152344 563.566406 230.84375 C 563.71875 229.117188 563.882812 227.40625 563.980469 225.722656 C 564.628906 215.648438 561.5625 202.691406 550.949219 199.308594 C 548.3125 198.476562 545.71875 198.40625 543.207031 198.339844 C 540.695312 198.269531 538.304688 198.21875 536.484375 197.304688 C 533.226562 195.660156 531.886719 191.320312 531.75 187.8125 C 531.625 185.21875 531.941406 182.550781 532.289062 179.730469 C 532.535156 177.683594 532.796875 175.558594 532.910156 173.40625 C 533.445312 159.546875 526.324219 145.6875 514.742188 138.089844 C 507.703125 133.464844 498.964844 131.183594 490.3125 131.65625 C 488.652344 124.59375 481.378906 119.207031 474.285156 117.878906 C 469.289062 116.957031 464.332031 117.367188 459.554688 117.773438 C 456.492188 118.03125 453.605469 118.269531 450.722656 118.1875 C 440.464844 117.824219 430.570312 113.019531 421.015625 108.378906 C 419.140625 107.464844 417.277344 106.554688 415.398438 105.667969 C 404.921875 100.75 389.351562 94.808594 375.011719 100.132812 C 366.273438 103.375 359.800781 110.078125 353.5625 116.550781 C 347.273438 123.085938 341.324219 129.25 333.511719 131.613281 C 327.777344 133.339844 321.59375 132.816406 315.054688 132.261719 C 308.59375 131.722656 301.914062 131.171875 295.3125 132.816406 C 278.554688 137.015625 269.390625 153.664062 265.414062 163.210938 C 260.460938 175.128906 257.714844 188.238281 257.449219 201.113281 C 257.371094 204.84375 257.46875 208.738281 257.546875 212.484375 C 257.878906 226.960938 258.222656 241.9375 249.089844 251.527344 C 248.203125 252.449219 247.222656 253.390625 246.230469 254.359375 C 241.105469 259.316406 234.082031 266.101562 237.769531 274.152344 C 241.371094 282.085938 251.761719 282.140625 259.894531 278.824219 L 261.070312 278.339844 C 266.398438 276.128906 271.917969 273.851562 275.660156 276.210938 C 278.488281 277.996094 279.429688 281.792969 280.5 286.199219 C 281.039062 288.410156 281.597656 290.703125 282.464844 292.875 C 284.976562 299.242188 290.757812 304.203125 297.9375 306.328125 C 297.507812 314.300781 297.660156 320.945312 298.410156 327.066406 C 301.828125 354.859375 318.902344 379.328125 335.148438 399.578125 C 340.5625 406.335938 346.996094 413.824219 355.25 418.3125 C 355.609375 421.917969 355.539062 425.632812 355.457031 429.53125 L 355.429688 430.636719 C 355.25 439.738281 355.316406 448.882812 355.621094 457.835938 C 345.890625 477.328125 327.769531 491.972656 306.976562 497.097656 C 305.738281 497.402344 304.453125 497.679688 303.167969 497.941406 C 301.179688 498.339844 299.164062 498.699219 297.191406 499.046875 C 297.179688 499.058594 297.152344 499.058594 297.136719 499.058594 C 291.613281 500.039062 285.914062 501.050781 280.40625 503.050781 C 261.855469 509.863281 246.929688 528.167969 240.53125 552 C 235.808594 569.585938 235.695312 587.984375 235.585938 605.78125 C 235.558594 608.792969 235.542969 611.816406 235.503906 614.828125 C 234.886719 659.808594 229.019531 705.054688 222.527344 751.292969 C 222.304688 752.867188 223.191406 754.386719 224.667969 754.980469 C 242.417969 762.066406 260.609375 768.0625 279.09375 772.941406 C 281.015625 773.4375 282.933594 773.933594 284.863281 774.417969 C 322.496094 783.839844 361.246094 788.632812 399.996094 788.632812 C 412.957031 788.632812 425.945312 788.082031 438.863281 787.003906 C 466.691406 784.667969 494.519531 779.722656 521.742188 772.359375 C 524.378906 771.640625 527.015625 770.910156 529.652344 770.148438 C 561.082031 761.074219 591.671875 748.761719 620.4375 733.484375 C 621.789062 732.78125 622.507812 731.289062 622.230469 729.808594 "/>
</g>
<path style=" stroke:none;fill-rule:nonzero;fill:rgb(100%,100%,97.648621%);fill-opacity:1;" d="M 315.222656 252.050781 C 315.152344 254.691406 319.363281 254.800781 319.902344 252.394531 C 321.636719 244.578125 327.710938 236.757812 336.519531 237.308594 C 344.648438 237.820312 349.011719 244.148438 353.429688 250.101562 C 354.5 251.554688 358.164062 251.761719 358.296875 249.34375 C 358.988281 237.476562 345.808594 230.210938 335.207031 231.371094 C 324.769531 232.503906 315.507812 241.371094 315.222656 252.050781 Z M 366.960938 332.921875 C 359.722656 329.800781 351.507812 327.480469 343.652344 326.679688 C 341.359375 326.445312 338.820312 329.675781 341.542969 331.042969 C 348.289062 334.441406 356.480469 336.554688 363.910156 337.675781 C 366.394531 338.046875 370.6875 334.527344 366.960938 332.921875 Z M 349.535156 352.359375 C 348.554688 351.28125 345.875 352.058594 346.554688 353.726562 C 356.4375 378.179688 398.460938 375.816406 403.886719 349.238281 C 404.410156 346.601562 400.394531 346.902344 399.371094 348.410156 C 393.273438 357.402344 385.085938 364.972656 373.519531 364.917969 C 363.691406 364.875 355.871094 359.363281 349.535156 352.359375 Z M 400.628906 249.203125 C 405.144531 240.707031 413.230469 233.429688 423.613281 235.777344 C 432.75 237.835938 436.285156 245.308594 440.992188 252.382812 C 442.246094 254.273438 446.292969 253.972656 446.554688 251.375 C 447.90625 238.332031 433.066406 229.019531 421.390625 229.117188 C 410.058594 229.203125 398.242188 236.964844 395.757812 248.375 C 395.164062 251.070312 399.648438 251.070312 400.628906 249.203125 Z M 428.015625 284.460938 C 428.015625 275.300781 424.867188 267.867188 420.976562 267.867188 C 417.082031 267.867188 413.921875 275.300781 413.921875 284.460938 C 413.921875 293.621094 417.082031 301.050781 420.976562 301.050781 C 424.867188 301.050781 428.015625 293.621094 428.015625 284.460938 Z M 391.269531 380.707031 C 385.707031 381.359375 380.667969 383.25 374.980469 383.140625 C 371.667969 383.085938 370.566406 387.257812 374.265625 387.710938 C 380.394531 388.457031 388.011719 388.265625 393.039062 384.191406 C 394.984375 382.613281 393.492188 380.445312 391.269531 380.707031 Z M 340.078125 284.460938 C 340.078125 275.300781 336.933594 267.867188 333.042969 267.867188 C 329.148438 267.867188 326 275.300781 326 284.460938 C 326 293.621094 329.148438 301.050781 333.042969 301.050781 C 336.933594 301.050781 340.078125 293.621094 340.078125 284.460938 Z M 305.25 326.222656 C 304.480469 319.828125 304.398438 312.726562 305.003906 303.871094 C 305.003906 303.789062 305.019531 303.703125 305.019531 303.621094 C 305.347656 298.953125 305.84375 294.160156 306.304688 289.53125 C 307.886719 273.890625 309.503906 257.8125 305.488281 242.421875 C 308.261719 241.757812 310.9375 240.75 313.410156 239.480469 C 331.203125 230.304688 337.167969 209.367188 350.527344 195.765625 C 358.394531 187.769531 368.6875 182.332031 379.800781 186.980469 C 388.414062 190.585938 395.355469 197.402344 404.867188 198.847656 C 416.035156 200.5625 424.964844 195.800781 432.144531 188.585938 C 436.226562 200.21875 447.617188 210.414062 454.960938 219.695312 C 471.332031 240.445312 461.695312 264.789062 458.257812 288.09375 C 457.25 294.945312 454.105469 310.019531 462.773438 313.511719 C 469.828125 316.371094 476.066406 309.394531 479.363281 304.132812 C 483.4375 297.597656 486.734375 290.71875 489.273438 283.589844 C 491.664062 287.664062 497.503906 288.605469 497.335938 294.601562 C 497.117188 303.054688 487.839844 305.015625 482.910156 310.058594 C 481.488281 311.511719 483.339844 313.015625 484.859375 312.851562 C 494.257812 311.828125 504.707031 303.082031 503.988281 292.957031 C 503.699219 288.882812 501.945312 286.367188 498.9375 283.824219 C 495.140625 280.675781 492.160156 276.808594 497.585938 272.855469 C 500.222656 270.910156 504.335938 270.3125 507.441406 269.238281 C 508.449219 268.890625 508.476562 267.539062 507.289062 267.414062 C 502.859375 266.972656 497.019531 267.953125 492.945312 270.6875 C 493.980469 266.03125 494.699219 261.308594 495.113281 256.539062 C 503.203125 252.507812 512.492188 254.332031 518.871094 262.730469 C 526.515625 272.785156 525.316406 286.617188 520.457031 297.597656 C 511.652344 317.589844 492.945312 325.878906 472.585938 328.945312 C 470.046875 329.316406 468.734375 333.269531 471.925781 333.78125 C 472.492188 333.875 473.054688 333.945312 473.621094 334.015625 C 466.25 342.070312 461.296875 353.867188 460.660156 363.910156 C 460.414062 367.53125 461.667969 371.507812 463.78125 374.5625 C 463.640625 374.988281 463.519531 375.417969 463.394531 375.847656 C 463.367188 375.875 463.367188 375.902344 463.367188 375.929688 C 460.382812 386.191406 460.355469 397.398438 460.535156 407.082031 C 460.9375 427.929688 461.917969 449.007812 463.367188 469.746094 C 463.433594 470.558594 463.765625 471.320312 464.332031 471.914062 C 468.914062 476.652344 473.277344 480.507812 477.613281 483.65625 C 469.632812 491.917969 461.585938 500.136719 453.179688 507.984375 C 438.148438 522.0625 421.417969 536.804688 401.414062 543.101562 C 364.890625 554.609375 334.378906 528.679688 308.980469 503.703125 C 328.042969 498.921875 345.007812 486.835938 356.199219 470.449219 C 356.589844 477.039062 357.101562 483.683594 357.765625 490.316406 C 356.050781 497.390625 351.757812 502.996094 343.074219 503.648438 C 340.371094 503.839844 340.078125 507.777344 343.03125 507.765625 C 351.980469 507.738281 362.0625 501.203125 364.269531 492.59375 C 364.476562 491.835938 364.601562 491.0625 364.671875 490.273438 C 364.824219 488.6875 364.671875 487.042969 364.203125 485.371094 C 363.414062 476.363281 362.847656 467.355469 362.546875 458.554688 L 362.546875 458.457031 C 362.214844 449.355469 362.160156 440.042969 362.324219 430.773438 L 362.339844 429.667969 C 362.40625 426.796875 362.476562 423.851562 362.351562 420.910156 C 379.332031 421.601562 396.101562 417.402344 411.410156 409.984375 C 427.117188 402.34375 443.792969 390.753906 454.421875 376.714844 C 455.527344 375.25 452.847656 374.476562 451.882812 375.074219 C 438.023438 383.527344 425.929688 394.261719 411.355469 401.636719 C 395.632812 409.582031 378.875 414.265625 361.152344 413.257812 C 360.902344 413.242188 360.683594 413.242188 360.453125 413.257812 C 360.304688 413.144531 360.121094 413.035156 359.941406 412.953125 C 352.15625 409.25 346.085938 402.175781 340.535156 395.269531 C 324.894531 375.761719 308.46875 352.304688 305.25 326.222656 Z M 614.988281 728.566406 C 587.699219 742.863281 558.78125 754.457031 529.089844 763.132812 C 528.660156 760.105469 528.121094 757.121094 527.804688 754.34375 C 526.742188 744.894531 525.679688 735.433594 524.628906 725.96875 C 522.558594 707.511719 520.558594 689.042969 518.363281 670.597656 C 516.265625 652.640625 514.167969 634.679688 511.929688 616.75 C 510.703125 606.96875 508.382812 588.097656 493.765625 592.90625 C 491.945312 593.5 492.660156 595.875 494.496094 595.542969 C 496.96875 596.757812 499.410156 597.988281 501.894531 599.203125 C 502.308594 600.476562 502.765625 601.761719 503.207031 603.03125 C 503.550781 604.59375 503.621094 606.207031 503.800781 607.796875 C 504.242188 611.75 504.613281 615.714844 505 619.679688 C 505.773438 627.371094 506.5625 635.054688 507.375 642.75 C 509.019531 658.097656 510.605469 673.445312 512.332031 688.78125 C 514 703.644531 515.65625 718.507812 517.328125 733.375 C 518.183594 741.027344 519.054688 748.679688 519.894531 756.335938 C 520.214844 759.179688 520.308594 762.359375 520.613281 765.507812 C 493.574219 772.871094 465.9375 777.804688 438.304688 780.125 C 387.726562 784.363281 336.339844 780.125 286.988281 767.828125 C 288.53125 760.589844 288.582031 752.699219 289.316406 745.53125 C 290.351562 735.53125 291.273438 725.511719 292.128906 715.484375 C 293.882812 694.996094 295.414062 674.496094 296.714844 653.964844 C 297.34375 643.9375 297.929688 633.90625 298.449219 623.863281 C 298.882812 615.796875 299.75 607.4375 298.414062 599.410156 C 297.28125 592.628906 293.910156 587.296875 288.910156 582.695312 C 283.585938 577.777344 277.914062 572.902344 272.320312 568.300781 C 271.703125 567.777344 270.429688 568.203125 270.445312 569.074219 C 270.515625 575.261719 275.761719 579.726562 279.9375 583.675781 C 285.644531 589.0625 289.753906 594.367188 290.664062 602.464844 C 291.699219 611.804688 290.238281 621.707031 289.714844 631.046875 C 289.175781 640.636719 288.582031 650.222656 287.945312 659.796875 C 286.679688 678.957031 285.203125 698.089844 283.53125 717.222656 C 282.6875 726.769531 281.816406 736.332031 280.9375 745.875 C 280.371094 752.164062 278.992188 759.054688 278.753906 765.6875 C 262.136719 761.238281 245.765625 755.851562 229.75 749.566406 C 236.113281 704.015625 241.785156 659.4375 242.410156 614.910156 C 242.449219 611.886719 242.464844 608.859375 242.492188 605.820312 C 242.605469 588.46875 242.714844 570.523438 247.199219 553.792969 C 253.023438 532.121094 266.332031 515.582031 282.785156 509.546875 C 287.714844 507.75 292.875 506.839844 298.34375 505.871094 C 299.636719 505.636719 300.953125 505.402344 302.273438 505.152344 C 326.804688 533.902344 359.519531 561.0625 399.03125 551.183594 C 420.289062 545.863281 438.332031 531.484375 454.230469 517.019531 C 464.472656 507.707031 474.261719 497.832031 483.605469 487.550781 C 484.738281 488.214844 485.855469 488.824219 487 489.390625 C 497.492188 494.652344 509.226562 496.710938 520.585938 498.703125 C 533.230469 500.925781 545.226562 503.039062 555.191406 509.242188 C 529.089844 520.40625 509.417969 545.507812 504.339844 573.507812 C 503.925781 575.746094 507.695312 575.789062 508.257812 573.882812 C 516.445312 546.695312 535.492188 525.570312 560.121094 512.777344 C 574.171875 524.492188 579.152344 543.847656 583.390625 564.320312 C 594.503906 618.144531 604.691406 672.742188 614.988281 728.566406 "/>
<g clip-path="url(#clip3)" clip-rule="nonzero">
<path style=" stroke:none;fill-rule:nonzero;fill:rgb(5.879211%,5.488586%,4.708862%);fill-opacity:1;" d="M 340.078125 284.460938 C 340.078125 293.621094 336.933594 301.050781 333.042969 301.050781 C 329.148438 301.050781 326 293.621094 326 284.460938 C 326 275.300781 329.148438 267.867188 333.042969 267.867188 C 336.933594 267.867188 340.078125 275.300781 340.078125 284.460938 Z M 319.902344 252.394531 C 319.363281 254.800781 315.152344 254.691406 315.222656 252.050781 C 315.507812 241.371094 324.769531 232.503906 335.207031 231.371094 C 345.808594 230.210938 358.988281 237.476562 358.296875 249.34375 C 358.164062 251.761719 354.5 251.554688 353.429688 250.101562 C 349.011719 244.148438 344.648438 237.820312 336.519531 237.308594 C 327.710938 236.757812 321.636719 244.578125 319.902344 252.394531 Z M 363.910156 337.675781 C 356.480469 336.554688 348.289062 334.441406 341.542969 331.042969 C 338.820312 329.675781 341.359375 326.445312 343.652344 326.679688 C 351.507812 327.480469 359.722656 329.800781 366.960938 332.921875 C 370.6875 334.527344 366.394531 338.046875 363.910156 337.675781 Z M 393.039062 384.191406 C 388.011719 388.265625 380.394531 388.457031 374.265625 387.710938 C 370.566406 387.257812 371.667969 383.085938 374.980469 383.140625 C 380.667969 383.25 385.707031 381.359375 391.269531 380.707031 C 393.492188 380.445312 394.984375 382.613281 393.039062 384.191406 Z M 403.886719 349.238281 C 398.460938 375.816406 356.4375 378.179688 346.554688 353.726562 C 345.875 352.058594 348.554688 351.28125 349.535156 352.359375 C 355.871094 359.363281 363.691406 364.875 373.519531 364.917969 C 385.085938 364.972656 393.273438 357.402344 399.371094 348.410156 C 400.394531 346.902344 404.410156 346.601562 403.886719 349.238281 Z M 428.015625 284.460938 C 428.015625 293.621094 424.867188 301.050781 420.976562 301.050781 C 417.082031 301.050781 413.921875 293.621094 413.921875 284.460938 C 413.921875 275.300781 417.082031 267.867188 420.976562 267.867188 C 424.867188 267.867188 428.015625 275.300781 428.015625 284.460938 Z M 446.554688 251.375 C 446.292969 253.972656 442.246094 254.273438 440.992188 252.382812 C 436.285156 245.308594 432.75 237.835938 423.613281 235.777344 C 413.230469 233.429688 405.144531 240.707031 400.628906 249.207031 C 399.648438 251.070312 395.164062 251.070312 395.757812 248.375 C 398.242188 236.964844 410.058594 229.203125 421.390625 229.117188 C 433.066406 229.019531 447.90625 238.332031 446.554688 251.375 Z M 529.085938 763.132812 C 528.65625 760.105469 528.117188 757.121094 527.800781 754.34375 C 526.738281 744.894531 525.675781 735.433594 524.625 725.96875 C 522.554688 707.511719 520.554688 689.042969 518.359375 670.597656 C 516.261719 652.640625 514.164062 634.679688 511.925781 616.75 C 510.699219 606.96875 508.378906 588.097656 493.761719 592.90625 C 491.9375 593.5 492.65625 595.875 494.492188 595.542969 C 496.964844 596.757812 499.40625 597.988281 501.890625 599.203125 C 502.304688 600.476562 502.761719 601.761719 503.203125 603.03125 C 503.546875 604.59375 503.617188 606.207031 503.796875 607.796875 C 504.238281 611.75 504.609375 615.714844 504.996094 619.679688 C 505.769531 627.371094 506.558594 635.054688 507.371094 642.75 C 509.015625 658.097656 510.601562 673.445312 512.328125 688.78125 C 513.996094 703.644531 515.652344 718.507812 517.324219 733.375 C 518.179688 741.027344 519.050781 748.679688 519.890625 756.335938 C 520.210938 759.179688 520.304688 762.359375 520.609375 765.507812 C 493.566406 772.871094 465.933594 777.804688 438.300781 780.125 C 387.722656 784.363281 336.335938 780.125 286.984375 767.828125 C 288.523438 760.589844 288.578125 752.703125 289.3125 745.53125 C 290.347656 735.53125 291.269531 725.511719 292.125 715.484375 C 293.878906 694.996094 295.410156 674.496094 296.710938 653.964844 C 297.339844 643.9375 297.925781 633.90625 298.445312 623.863281 C 298.878906 615.796875 299.746094 607.4375 298.410156 599.410156 C 297.277344 592.628906 293.90625 587.296875 288.90625 582.695312 C 283.582031 577.777344 277.910156 572.902344 272.316406 568.300781 C 271.699219 567.777344 270.425781 568.203125 270.441406 569.074219 C 270.511719 575.261719 275.757812 579.726562 279.933594 583.675781 C 285.640625 589.0625 289.75 594.367188 290.660156 602.464844 C 291.695312 611.804688 290.234375 621.707031 289.710938 631.046875 C 289.171875 640.636719 288.578125 650.222656 287.941406 659.796875 C 286.675781 678.957031 285.199219 698.089844 283.527344 717.226562 C 282.683594 726.769531 281.8125 736.332031 280.933594 745.875 C 280.367188 752.164062 278.988281 759.054688 278.75 765.6875 C 262.132812 761.238281 245.761719 755.851562 229.746094 749.566406 C 236.109375 704.019531 241.78125 659.4375 242.40625 614.910156 C 242.445312 611.886719 242.460938 608.859375 242.488281 605.820312 C 242.601562 588.46875 242.710938 570.523438 247.195312 553.792969 C 253.019531 532.121094 266.328125 515.582031 282.78125 509.546875 C 287.710938 507.75 292.871094 506.839844 298.339844 505.871094 C 299.632812 505.636719 300.949219 505.402344 302.269531 505.152344 C 326.800781 533.902344 359.515625 561.0625 399.027344 551.183594 C 420.285156 545.863281 438.328125 531.484375 454.226562 517.019531 C 464.46875 507.707031 474.257812 497.832031 483.601562 487.550781 C 484.734375 488.214844 485.851562 488.824219 486.996094 489.390625 C 497.488281 494.652344 509.222656 496.710938 520.582031 498.703125 C 533.226562 500.925781 545.222656 503.039062 555.1875 509.242188 C 529.085938 520.40625 509.414062 545.507812 504.335938 573.507812 C 503.921875 575.746094 507.6875 575.789062 508.253906 573.882812 C 516.441406 546.695312 535.488281 525.570312 560.113281 512.777344 C 574.167969 524.492188 579.148438 543.847656 583.386719 564.320312 C 594.5 618.144531 604.6875 672.742188 614.984375 728.566406 C 587.695312 742.863281 558.777344 754.457031 529.085938 763.132812 Z M 356.195312 470.449219 C 356.585938 477.039062 357.097656 483.683594 357.757812 490.316406 C 356.046875 497.390625 351.753906 502.996094 343.070312 503.648438 C 340.367188 503.839844 340.074219 507.777344 343.027344 507.765625 C 351.972656 507.734375 362.058594 501.203125 364.265625 492.59375 C 364.472656 491.835938 364.597656 491.0625 364.667969 490.273438 C 364.820312 488.6875 364.667969 487.042969 364.199219 485.371094 C 363.410156 476.363281 362.84375 467.355469 362.542969 458.554688 L 362.542969 458.457031 C 362.210938 449.355469 362.15625 440.042969 362.320312 430.773438 L 362.335938 429.667969 C 362.402344 426.796875 362.472656 423.851562 362.347656 420.910156 C 379.328125 421.601562 396.097656 417.402344 411.40625 409.980469 C 427.113281 402.34375 443.789062 390.753906 454.417969 376.714844 C 455.523438 375.25 452.84375 374.476562 451.878906 375.070312 C 438.019531 383.527344 425.925781 394.261719 411.351562 401.636719 C 395.628906 409.582031 378.871094 414.265625 361.148438 413.257812 C 360.898438 413.242188 360.675781 413.242188 360.449219 413.257812 C 360.300781 413.144531 360.117188 413.035156 359.9375 412.953125 C 352.152344 409.25 346.082031 402.175781 340.53125 395.269531 C 324.890625 375.761719 308.464844 352.304688 305.246094 326.222656 C 304.476562 319.828125 304.394531 312.726562 305 303.871094 C 305 303.789062 305.015625 303.703125 305.015625 303.621094 C 305.34375 298.953125 305.839844 294.160156 306.296875 289.53125 C 307.882812 273.890625 309.5 257.8125 305.484375 242.421875 C 308.257812 241.757812 310.933594 240.75 313.40625 239.480469 C 331.199219 230.304688 337.160156 209.367188 350.523438 195.765625 C 358.390625 187.769531 368.683594 182.332031 379.796875 186.980469 C 388.410156 190.585938 395.351562 197.402344 404.863281 198.847656 C 416.03125 200.5625 424.960938 195.800781 432.136719 188.585938 C 436.222656 200.21875 447.613281 210.414062 454.957031 219.695312 C 471.328125 240.445312 461.691406 264.789062 458.253906 288.09375 C 457.246094 294.945312 454.101562 310.019531 462.769531 313.511719 C 469.820312 316.371094 476.0625 309.394531 479.359375 304.132812 C 483.433594 297.597656 486.730469 290.71875 489.269531 283.589844 C 491.660156 287.664062 497.5 288.605469 497.332031 294.601562 C 497.113281 303.054688 487.835938 305.015625 482.90625 310.058594 C 481.484375 311.511719 483.335938 313.015625 484.855469 312.851562 C 494.253906 311.828125 504.703125 303.082031 503.984375 292.957031 C 503.695312 288.882812 501.941406 286.367188 498.933594 283.824219 C 495.136719 280.675781 492.15625 276.808594 497.582031 272.855469 C 500.21875 270.910156 504.332031 270.3125 507.4375 269.238281 C 508.445312 268.890625 508.472656 267.539062 507.285156 267.414062 C 502.855469 266.972656 497.015625 267.953125 492.941406 270.6875 C 493.976562 266.03125 494.695312 261.308594 495.109375 256.539062 C 503.199219 252.507812 512.488281 254.332031 518.867188 262.730469 C 526.511719 272.785156 525.3125 286.617188 520.453125 297.597656 C 511.648438 317.589844 492.941406 325.878906 472.582031 328.945312 C 470.042969 329.316406 468.730469 333.269531 471.921875 333.78125 C 472.484375 333.875 473.050781 333.945312 473.617188 334.015625 C 466.246094 342.070312 461.292969 353.867188 460.65625 363.910156 C 460.40625 367.53125 461.664062 371.507812 463.777344 374.5625 C 463.636719 374.988281 463.515625 375.417969 463.390625 375.847656 C 463.363281 375.875 463.363281 375.902344 463.363281 375.929688 C 460.378906 386.191406 460.351562 397.398438 460.53125 407.082031 C 460.933594 427.929688 461.914062 449.007812 463.363281 469.746094 C 463.429688 470.558594 463.761719 471.320312 464.328125 471.914062 C 468.910156 476.652344 473.273438 480.507812 477.605469 483.65625 C 469.628906 491.917969 461.582031 500.136719 453.175781 507.984375 C 438.144531 522.0625 421.414062 536.804688 401.410156 543.101562 C 364.886719 554.609375 334.375 528.679688 308.976562 503.703125 C 328.039062 498.921875 345.003906 486.835938 356.195312 470.449219 Z M 622.230469 729.808594 C 611.78125 673.074219 601.457031 617.621094 590.136719 562.914062 C 586.050781 543.117188 580.847656 522.820312 566.863281 509.546875 C 565.707031 508.453125 564.503906 507.40625 563.222656 506.410156 C 563.191406 506.394531 563.191406 506.367188 563.152344 506.355469 C 551.171875 497.070312 536.234375 494.445312 521.753906 491.90625 C 510.917969 489.996094 499.695312 488.023438 490.089844 483.214844 C 489.496094 482.910156 488.902344 482.605469 488.308594 482.289062 C 486.363281 481.210938 484.402344 479.996094 482.46875 478.628906 C 478.453125 475.808594 474.4375 472.316406 470.171875 468.003906 C 468.761719 447.78125 467.839844 427.25 467.4375 406.941406 C 467.285156 398.613281 467.285156 389.148438 469.289062 380.5 L 469.605469 380.5 C 478.550781 380.445312 487.203125 374.644531 490.628906 366.410156 C 490.933594 365.679688 491.222656 364.890625 491.539062 364.101562 C 492.824219 360.703125 493.859375 358.273438 495.390625 358.09375 C 496.273438 357.984375 497.53125 358.675781 498.867188 359.390625 C 500.042969 360.027344 501.351562 360.730469 502.859375 361.175781 C 510.351562 363.371094 517.367188 357.664062 520.179688 351.1875 C 521.808594 347.402344 522.375 343.476562 522.941406 339.679688 C 523.21875 337.71875 523.507812 335.867188 523.910156 334.054688 C 524.570312 331.113281 525.539062 329.207031 526.863281 328.226562 C 529.347656 326.375 533.488281 327.519531 536.277344 329.054688 C 537.683594 329.84375 539.035156 330.78125 540.472656 331.777344 C 542.984375 333.488281 545.550781 335.273438 548.628906 336.417969 C 556.25 339.265625 565.679688 337.34375 572.636719 331.542969 C 578.28125 326.832031 582.449219 319.714844 584.710938 311 C 589.476562 292.570312 584.546875 272.332031 571.847656 258.15625 C 571.253906 257.492188 570.648438 256.84375 570.054688 256.210938 C 568.257812 254.316406 566.601562 252.535156 565.441406 250.53125 C 562.242188 245.0625 562.902344 238.152344 563.566406 230.84375 C 563.71875 229.117188 563.882812 227.40625 563.980469 225.722656 C 564.628906 215.648438 561.5625 202.691406 550.949219 199.308594 C 548.3125 198.476562 545.71875 198.40625 543.207031 198.339844 C 540.695312 198.269531 538.304688 198.21875 536.484375 197.304688 C 533.226562 195.660156 531.886719 191.320312 531.75 187.8125 C 531.625 185.21875 531.941406 182.550781 532.289062 179.730469 C 532.535156 177.683594 532.796875 175.558594 532.910156 173.40625 C 533.445312 159.546875 526.324219 145.6875 514.742188 138.089844 C 507.703125 133.464844 498.964844 131.183594 490.3125 131.65625 C 488.652344 124.59375 481.378906 119.207031 474.285156 117.878906 C 469.289062 116.957031 464.332031 117.367188 459.554688 117.773438 C 456.492188 118.03125 453.605469 118.269531 450.722656 118.1875 C 440.464844 117.824219 430.570312 113.019531 421.015625 108.378906 C 419.140625 107.464844 417.277344 106.554688 415.398438 105.667969 C 404.921875 100.75 389.351562 94.808594 375.011719 100.132812 C 366.273438 103.375 359.800781 110.078125 353.5625 116.550781 C 347.273438 123.085938 341.324219 129.25 333.511719 131.613281 C 327.777344 133.339844 321.59375 132.816406 315.054688 132.261719 C 308.59375 131.722656 301.914062 131.171875 295.3125 132.816406 C 278.554688 137.015625 269.390625 153.664062 265.414062 163.210938 C 260.460938 175.128906 257.714844 188.238281 257.449219 201.113281 C 257.371094 204.84375 257.46875 208.738281 257.546875 212.484375 C 257.878906 226.960938 258.222656 241.9375 249.089844 251.527344 C 248.203125 252.449219 247.222656 253.390625 246.230469 254.359375 C 241.105469 259.316406 234.082031 266.101562 237.769531 274.152344 C 241.371094 282.085938 251.761719 282.140625 259.894531 278.824219 L 261.070312 278.339844 C 266.398438 276.128906 271.917969 273.851562 275.660156 276.210938 C 278.488281 277.996094 279.429688 281.792969 280.5 286.199219 C 281.039062 288.410156 281.597656 290.703125 282.464844 292.875 C 284.976562 299.242188 290.757812 304.203125 297.9375 306.328125 C 297.507812 314.300781 297.660156 320.945312 298.410156 327.066406 C 301.828125 354.859375 318.902344 379.328125 335.148438 399.578125 C 340.5625 406.335938 346.996094 413.824219 355.25 418.3125 C 355.609375 421.917969 355.539062 425.632812 355.457031 429.53125 L 355.429688 430.636719 C 355.25 439.738281 355.316406 448.882812 355.621094 457.835938 C 345.890625 477.328125 327.769531 491.972656 306.976562 497.097656 C 305.738281 497.402344 304.453125 497.679688 303.167969 497.941406 C 301.179688 498.339844 299.164062 498.699219 297.191406 499.046875 C 297.179688 499.058594 297.152344 499.058594 297.136719 499.058594 C 291.613281 500.039062 285.914062 501.050781 280.40625 503.050781 C 261.855469 509.863281 246.929688 528.167969 240.53125 552 C 235.808594 569.585938 235.695312 587.984375 235.585938 605.78125 C 235.558594 608.792969 235.542969 611.816406 235.503906 614.828125 C 234.886719 659.808594 229.019531 705.054688 222.527344 751.292969 C 222.304688 752.867188 223.191406 754.386719 224.667969 754.980469 C 242.417969 762.066406 260.609375 768.0625 279.09375 772.941406 C 281.015625 773.4375 282.933594 773.933594 284.863281 774.417969 C 322.496094 783.839844 361.246094 788.632812 399.996094 788.632812 C 412.957031 788.632812 425.945312 788.082031 438.863281 787.003906 C 466.691406 784.667969 494.519531 779.722656 521.742188 772.359375 C 524.378906 771.640625 527.015625 770.910156 529.652344 770.148438 C 561.082031 761.074219 591.671875 748.761719 620.4375 733.484375 C 621.789062 732.78125 622.507812 731.289062 622.230469 729.808594 "/>
</g>
</g>
</svg>
